<?xml version="1.0" encoding="utf-8"?>
<!-- Generator: Adobe Illustrator 23.0.2, SVG Export Plug-In . SVG Version: 6.00 Build 0)  -->
<svg version="1.1" id="Layer_1" xmlns="http://www.w3.org/2000/svg" xmlns:xlink="http://www.w3.org/1999/xlink" x="0px" y="0px"
	 viewBox="0 0 100 100" style="enable-background:new 0 0 100 100;" xml:space="preserve">
<rect x="21" y="28.7" transform="matrix(0.798 -0.6027 0.6027 0.798 -13.2905 23.3033)" width="14.2" height="5.6"/>
<path d="M40,14c-4.7,0-8.5,3.8-8.5,8.5S35.3,31,40,31s8.5-3.8,8.5-8.5S44.7,14,40,14L40,14z M40,25.4c-1.6,0-2.9-1.3-2.9-2.9
	s1.3-2.9,2.9-2.9c1.6,0,2.9,1.3,2.9,2.9C42.9,24.1,41.6,25.4,40,25.4C40,25.4,40,25.4,40,25.4L40,25.4z"/>
<rect x="61" y="28.7" transform="matrix(0.798 -0.6027 0.6027 0.798 -5.2179 47.3838)" width="14.2" height="5.6"/>
<path d="M80,14c-4.7,0-8.5,3.8-8.5,8.5S75.3,31,80,31s8.5-3.8,8.5-8.5C88.5,17.8,84.7,14,80,14z M80,25.4c-1.6,0-2.9-1.3-2.9-2.9
	s1.3-2.9,2.9-2.9c1.6,0,2.9,1.3,2.9,2.9C82.9,24.1,81.6,25.4,80,25.4C80,25.4,80,25.4,80,25.4L80,25.4z"/>
<rect x="21" y="68.2" transform="matrix(0.798 -0.6027 0.6027 0.798 -37.0797 31.2787)" width="14.2" height="5.6"/>
<rect x="77.2" y="30.1" width="5.6" height="24.8"/>
<rect x="47.8" y="19.9" width="24.8" height="5.6"/>
<path d="M40,53.5c-4.7,0-8.5,3.8-8.5,8.5c0,4.7,3.8,8.5,8.5,8.5c4.7,0,8.5-3.8,8.5-8.5C48.5,57.3,44.7,53.5,40,53.5
	C40,53.5,40,53.5,40,53.5z M40,64.9c-1.6,0-2.9-1.3-2.9-2.9c0-1.6,1.3-2.9,2.9-2.9c1.6,0,2.9,1.3,2.9,2.9c0,0,0,0,0,0
	C42.9,63.6,41.6,64.9,40,64.9z"/>
<rect x="61" y="68.2" transform="matrix(0.798 -0.6027 0.6027 0.798 -29.0072 55.3592)" width="14.2" height="5.6"/>
<path d="M80,53.5c-4.7,0-8.5,3.8-8.5,8.5s3.8,8.5,8.5,8.5s8.5-3.8,8.5-8.5C88.5,57.3,84.7,53.5,80,53.5z M80,64.9
	c-1.6,0-2.9-1.3-2.9-2.9s1.3-2.9,2.9-2.9c1.6,0,2.9,1.3,2.9,2.9C82.9,63.6,81.6,64.9,80,64.9L80,64.9z"/>
<rect x="37.2" y="43.2" width="5.6" height="11.6"/>
<rect x="65.6" y="59.2" width="7" height="5.6"/>
<path d="M62.8,69.5V45.7c4.4-1.5,6.8-6.3,5.3-10.8s-6.3-6.8-10.8-5.3c-2.5,0.8-4.5,2.8-5.3,5.3H28c-1.5-4.4-6.4-6.8-10.8-5.2
	S10.5,36,12,40.4c0.9,2.5,2.8,4.4,5.2,5.2v23.8c-4.4,1.5-6.8,6.4-5.2,10.8c1.5,4.4,6.4,6.8,10.8,5.2c2.5-0.9,4.4-2.8,5.2-5.2h23.8
	c1.6,4.4,6.4,6.8,10.8,5.2c3.4-1.2,5.7-4.4,5.7-8C68.4,73.9,66.2,70.6,62.8,69.5z M60,34.8c1.5,0,2.8,1.3,2.8,2.8s-1.3,2.8-2.8,2.8
	s-2.8-1.3-2.8-2.8l0,0c0-1.5,1.2-2.8,2.7-2.8C59.9,34.8,60,34.8,60,34.8z M20.1,34.8c1.5,0,2.8,1.3,2.8,2.8s-1.3,2.8-2.8,2.8
	c-1.5,0-2.8-1.3-2.8-2.8l0,0C17.3,36.1,18.5,34.8,20.1,34.8L20.1,34.8z M20.1,80.3c-1.5,0-2.8-1.3-2.8-2.8c0-1.5,1.3-2.8,2.8-2.8
	s2.8,1.3,2.8,2.8c0,1.5-1.1,2.8-2.7,2.8C20.2,80.3,20.1,80.3,20.1,80.3L20.1,80.3z M52,74.6H28c-0.9-2.4-2.8-4.3-5.2-5.2V45.7
	c2.4-0.9,4.3-2.8,5.2-5.2h23.8c0.9,2.4,2.8,4.3,5.2,5.2v23.8C54.7,70.3,52.8,72.2,52,74.6z M60,80.3c-1.5,0-2.8-1.3-2.8-2.8
	c0-1.5,1.3-2.8,2.8-2.8c1.5,0,2.8,1.3,2.8,2.8C62.8,79,61.5,80.3,60,80.3z"/>
<rect x="37.2" y="30.1" width="5.6" height="1.9"/>
<rect x="47.8" y="59.2" width="6.6" height="5.6"/>
</svg>
